<?xml version="1.0" encoding="UTF-8"?>
<!DOCTYPE svg PUBLIC "-//W3C//DTD SVG 1.1//EN" "http://www.w3.org/Graphics/SVG/1.1/DTD/svg11.dtd">
<svg xmlns="http://www.w3.org/2000/svg" xmlns:xlink="http://www.w3.org/1999/xlink" version="1.1" width="571px" height="774px" viewBox="-0.5 -0.5 571 774" style="background-color: rgb(255, 255, 255);"><defs><clipPath id="mx-clip-264-41-172-64-0"><rect x="264" y="41" width="172" height="64"/></clipPath><clipPath id="mx-clip-264-113-172-62-0"><rect x="264" y="113" width="172" height="62"/></clipPath><clipPath id="mx-clip-144-261-172-26-0"><rect x="144" y="261" width="172" height="26"/></clipPath><clipPath id="mx-clip-144-295-172-70-0"><rect x="144" y="295" width="172" height="70"/></clipPath><clipPath id="mx-clip-384-261-172-26-0"><rect x="384" y="261" width="172" height="26"/></clipPath><clipPath id="mx-clip-384-295-172-70-0"><rect x="384" y="295" width="172" height="70"/></clipPath><clipPath id="mx-clip-144-451-172-54-0"><rect x="144" y="451" width="172" height="54"/></clipPath><clipPath id="mx-clip-144-515-172-60-0"><rect x="144" y="515" width="172" height="60"/></clipPath><clipPath id="mx-clip-14-661-182-44-0"><rect x="14" y="661" width="182" height="44"/></clipPath><clipPath id="mx-clip-14-713-182-52-0"><rect x="14" y="713" width="182" height="52"/></clipPath><clipPath id="mx-clip-264-661-182-44-0"><rect x="264" y="661" width="182" height="44"/></clipPath><clipPath id="mx-clip-264-713-182-52-0"><rect x="264" y="713" width="182" height="52"/></clipPath><clipPath id="mx-clip-264-69-162-30-0"><rect x="264" y="69" width="162" height="30"/></clipPath></defs><g><path d="M 260 36 L 260 10 L 440 10 L 440 36" fill="rgb(255, 255, 255)" stroke="rgb(0, 0, 0)" stroke-miterlimit="10" pointer-events="all"/><path d="M 260 36 L 260 170 L 440 170 L 440 36" fill="none" stroke="rgb(0, 0, 0)" stroke-miterlimit="10" pointer-events="none"/><path d="M 260 36 L 440 36" fill="none" stroke="rgb(0, 0, 0)" stroke-miterlimit="10" pointer-events="none"/><g fill="rgb(0, 0, 0)" font-family="Helvetica" font-weight="bold" font-style="italic" pointer-events="none" text-anchor="middle" font-size="12px"><text x="349.5" y="27.5">Vehicle</text></g><g fill="rgb(0, 0, 0)" font-family="Helvetica" pointer-events="none" clip-path="url(#mx-clip-264-41-172-64-0)" font-size="12px"><text x="265.5" y="53.5">+ Id: int</text><text x="265.5" y="67.5">+ Brand: string</text></g><path d="M 260 104 L 440 104" fill="none" stroke="rgb(0, 0, 0)" stroke-miterlimit="10" pointer-events="none"/><g fill="rgb(0, 0, 0)" font-family="Helvetica" pointer-events="none" clip-path="url(#mx-clip-264-113-172-62-0)" font-size="12px"><text x="265.5" y="125.5"># Vehicle(brand: string)</text><text x="265.5" y="139.5">+ GetEquipment(): string</text></g><path d="M 140 256 L 140 230 L 320 230 L 320 256" fill="rgb(255, 255, 255)" stroke="rgb(0, 0, 0)" stroke-miterlimit="10" pointer-events="none"/><path d="M 140 256 L 140 360 L 320 360 L 320 256" fill="none" stroke="rgb(0, 0, 0)" stroke-miterlimit="10" pointer-events="none"/><path d="M 140 256 L 320 256" fill="none" stroke="rgb(0, 0, 0)" stroke-miterlimit="10" pointer-events="none"/><g fill="rgb(0, 0, 0)" font-family="Helvetica" font-weight="bold" pointer-events="none" text-anchor="middle" font-size="12px"><text x="229.5" y="247.5">Car</text></g><g fill="rgb(0, 0, 0)" font-family="Helvetica" pointer-events="none" clip-path="url(#mx-clip-144-261-172-26-0)" font-size="12px"><text x="145.5" y="273.5">+ Tires: TireSet</text></g><path d="M 140 286 L 320 286" fill="none" stroke="rgb(0, 0, 0)" stroke-miterlimit="10" pointer-events="none"/><g fill="rgb(0, 0, 0)" font-family="Helvetica" pointer-events="none" clip-path="url(#mx-clip-144-295-172-70-0)" font-size="12px"><text x="145.5" y="307.5">+ Car(brand: string)</text><text x="145.5" y="321.5">+ GetEquipment(): string</text><text x="145.5" y="335.5">+ SetTires(tires: TireSet): void</text></g><path d="M 380 256 L 380 230 L 560 230 L 560 256" fill="rgb(255, 255, 255)" stroke="rgb(0, 0, 0)" stroke-miterlimit="10" pointer-events="none"/><path d="M 380 256 L 380 360 L 560 360 L 560 256" fill="none" stroke="rgb(0, 0, 0)" stroke-miterlimit="10" pointer-events="none"/><path d="M 380 256 L 560 256" fill="none" stroke="rgb(0, 0, 0)" stroke-miterlimit="10" pointer-events="none"/><g fill="rgb(0, 0, 0)" font-family="Helvetica" font-weight="bold" pointer-events="none" text-anchor="middle" font-size="12px"><text x="469.5" y="247.5">Motorcycle</text></g><g fill="rgb(0, 0, 0)" font-family="Helvetica" pointer-events="none" clip-path="url(#mx-clip-384-261-172-26-0)" font-size="12px"/><path d="M 380 286 L 560 286" fill="none" stroke="rgb(0, 0, 0)" stroke-miterlimit="10" pointer-events="none"/><g fill="rgb(0, 0, 0)" font-family="Helvetica" pointer-events="none" clip-path="url(#mx-clip-384-295-172-70-0)" font-size="12px"><text x="385.5" y="307.5">+ Motorcycle(brand: string)</text></g><path d="M 140 446 L 140 420 L 320 420 L 320 446" fill="rgb(255, 255, 255)" stroke="rgb(0, 0, 0)" stroke-miterlimit="10" pointer-events="none"/><path d="M 140 446 L 140 570 L 320 570 L 320 446" fill="none" stroke="rgb(0, 0, 0)" stroke-miterlimit="10" pointer-events="none"/><path d="M 140 446 L 320 446" fill="none" stroke="rgb(0, 0, 0)" stroke-miterlimit="10" pointer-events="none"/><g fill="rgb(0, 0, 0)" font-family="Helvetica" font-weight="bold" font-style="italic" pointer-events="none" text-anchor="middle" font-size="12px"><text x="229.5" y="437.5">TireSet</text></g><g fill="rgb(0, 0, 0)" font-family="Helvetica" pointer-events="none" clip-path="url(#mx-clip-144-451-172-54-0)" font-size="12px"><text x="145.5" y="463.5">+ Id: int</text><text x="145.5" y="477.5">+ Pressure: float</text><text x="145.5" y="491.5">+ Size: TireSize</text></g><path d="M 140 505 L 320 505" fill="none" stroke="rgb(0, 0, 0)" stroke-miterlimit="10" pointer-events="none"/><g fill="rgb(0, 0, 0)" font-family="Helvetica" pointer-events="none" clip-path="url(#mx-clip-144-515-172-60-0)" font-size="12px"><text x="145.5" y="527.5"># TireSet(...)</text><text x="145.5" y="541.5">+ GetSummary(): string</text><text x="145.5" y="555.5"># GetCharacteristics(): []</text></g><path d="M 105 630 L 175.47 577.43" fill="none" stroke="rgb(0, 0, 0)" stroke-miterlimit="10" pointer-events="none"/><path d="M 184.28 570.85 L 178.76 581.83 L 172.18 573.02 Z" fill="none" stroke="rgb(0, 0, 0)" stroke-miterlimit="10" pointer-events="none"/><path d="M 10 656 L 10 630 L 200 630 L 200 656" fill="rgb(255, 255, 255)" stroke="rgb(0, 0, 0)" stroke-miterlimit="10" pointer-events="none"/><path d="M 10 656 L 10 760 L 200 760 L 200 656" fill="none" stroke="rgb(0, 0, 0)" stroke-miterlimit="10" pointer-events="none"/><path d="M 10 656 L 200 656" fill="none" stroke="rgb(0, 0, 0)" stroke-miterlimit="10" pointer-events="none"/><g fill="rgb(0, 0, 0)" font-family="Helvetica" font-weight="bold" pointer-events="none" text-anchor="middle" font-size="12px"><text x="104.5" y="647.5">SummerTireSet</text></g><g fill="rgb(0, 0, 0)" font-family="Helvetica" pointer-events="none" clip-path="url(#mx-clip-14-661-182-44-0)" font-size="12px"><text x="15.5" y="673.5">+ MaximumTemperature: float</text></g><path d="M 10 704 L 200 704" fill="none" stroke="rgb(0, 0, 0)" stroke-miterlimit="10" pointer-events="none"/><g fill="rgb(0, 0, 0)" font-family="Helvetica" pointer-events="none" clip-path="url(#mx-clip-14-713-182-52-0)" font-size="12px"><text x="15.5" y="725.5">+ SummerTireSet(...)</text><text x="15.5" y="739.5"># GetCharacteristics(): []</text></g><path d="M 260 656 L 260 630 L 450 630 L 450 656" fill="rgb(255, 255, 255)" stroke="rgb(0, 0, 0)" stroke-miterlimit="10" pointer-events="none"/><path d="M 260 656 L 260 760 L 450 760 L 450 656" fill="none" stroke="rgb(0, 0, 0)" stroke-miterlimit="10" pointer-events="none"/><path d="M 260 656 L 450 656" fill="none" stroke="rgb(0, 0, 0)" stroke-miterlimit="10" pointer-events="none"/><g fill="rgb(0, 0, 0)" font-family="Helvetica" font-weight="bold" pointer-events="none" text-anchor="middle" font-size="12px"><text x="354.5" y="647.5">WinterTireSet</text></g><g fill="rgb(0, 0, 0)" font-family="Helvetica" pointer-events="none" clip-path="url(#mx-clip-264-661-182-44-0)" font-size="12px"><text x="265.5" y="673.5">+ MinimumTemperature: float</text><text x="265.5" y="687.5">+ Thickness: float</text></g><path d="M 260 704 L 450 704" fill="none" stroke="rgb(0, 0, 0)" stroke-miterlimit="10" pointer-events="none"/><g fill="rgb(0, 0, 0)" font-family="Helvetica" pointer-events="none" clip-path="url(#mx-clip-264-713-182-52-0)" font-size="12px"><text x="265.5" y="725.5">+ WinterTireSet(...)</text><text x="265.5" y="739.5"># GetCharacteristics(): []</text></g><path d="M 355 630 L 284.53 577.43" fill="none" stroke="rgb(0, 0, 0)" stroke-miterlimit="10" pointer-events="none"/><path d="M 275.72 570.85 L 287.82 573.02 L 281.24 581.83 Z" fill="none" stroke="rgb(0, 0, 0)" stroke-miterlimit="10" pointer-events="none"/><g fill="rgb(0, 0, 0)" font-family="Helvetica" font-style="italic" pointer-events="none" clip-path="url(#mx-clip-264-69-162-30-0)" font-size="12px"><text x="265.5" y="81.5">+ Kind: { Car, Motorcycle }</text></g><path d="M 230 230 L 295.54 177.57" fill="none" stroke="rgb(0, 0, 0)" stroke-miterlimit="10" pointer-events="none"/><path d="M 304.13 170.7 L 298.97 181.86 L 292.1 173.28 Z" fill="none" stroke="rgb(0, 0, 0)" stroke-miterlimit="10" pointer-events="none"/><path d="M 470 230 L 404.46 177.57" fill="none" stroke="rgb(0, 0, 0)" stroke-miterlimit="10" pointer-events="none"/><path d="M 395.87 170.7 L 407.9 173.28 L 401.03 181.86 Z" fill="none" stroke="rgb(0, 0, 0)" stroke-miterlimit="10" pointer-events="none"/><path d="M 230 420 L 230 390 L 230 371.99" fill="none" stroke="rgb(0, 0, 0)" stroke-miterlimit="10" pointer-events="none"/><path d="M 230 360.99 L 233.24 366.49 L 230 371.99 L 226.76 366.49 Z" fill="none" stroke="rgb(0, 0, 0)" stroke-miterlimit="10" pointer-events="none"/><g fill="rgb(0, 0, 0)" font-family="Helvetica" pointer-events="none" font-size="12px"><text x="236.5" y="416.5">0..1</text></g><g fill="rgb(0, 0, 0)" font-family="Helvetica" pointer-events="none" text-anchor="end" font-size="12px"><text x="256.5" y="373.5">0..1</text></g></g></svg>